<svg width="220" height="78" viewBox="0 0 220 78" fill="none" xmlns="http://www.w3.org/2000/svg">
<path d="M72.1025 67.9731C72.5214 67.9731 72.8786 68.015 73.1785 68.0966C73.4761 68.1804 73.7231 68.2973 73.9193 68.4516C74.1134 68.606 74.2545 68.7912 74.3471 69.0094C74.4397 69.2277 74.4838 69.4747 74.4838 69.7437C74.4838 69.9752 74.4507 70.1979 74.3846 70.4118C74.3184 70.6257 74.217 70.8219 74.0847 70.9983C73.9502 71.1791 73.7826 71.3378 73.5798 71.4745C73.3791 71.6135 73.141 71.7259 72.8698 71.8141C73.3394 71.9221 73.69 72.1052 73.9215 72.3675C74.1508 72.6299 74.2699 72.9651 74.2699 73.373C74.2699 73.7346 74.2038 74.0697 74.0715 74.3762C73.9392 74.6827 73.7495 74.9473 73.5026 75.17C73.2556 75.3927 72.9514 75.5647 72.5942 75.6903C72.237 75.8138 71.8313 75.8778 71.3793 75.8778H68.7422L69.7123 67.9731H72.1025V67.9731ZM71.4763 74.9804C71.7585 74.9804 72.0055 74.9429 72.2149 74.8679C72.4244 74.7929 72.5964 74.6871 72.7375 74.5482C72.8764 74.4115 72.98 74.2439 73.0506 74.0499C73.1189 73.8559 73.1542 73.6376 73.1542 73.395C73.1542 73.2252 73.1278 73.0753 73.0726 72.9408C73.0175 72.8041 72.9359 72.6917 72.8235 72.5968C72.7132 72.4998 72.5743 72.4271 72.4023 72.3764C72.2326 72.3234 72.0319 72.2992 71.8004 72.2992H70.3077L69.9769 74.9781H71.4763V74.9804ZM70.7332 68.8595L70.4069 71.501H71.6218C71.904 71.501 72.1532 71.4657 72.3671 71.393C72.5809 71.3202 72.7617 71.2144 72.9051 71.0821C73.0462 70.9476 73.1564 70.7844 73.2292 70.5926C73.3042 70.3986 73.3394 70.1847 73.3394 69.9465C73.3394 69.5805 73.2292 69.3071 73.0109 69.1307C72.7926 68.9521 72.4553 68.8639 71.9966 68.8639H70.7332V68.8595Z" fill="#ED862E"/>
<path d="M79.566 74.8436C79.3742 75.0376 79.1912 75.2052 79.0104 75.3463C78.8296 75.4852 78.6466 75.6021 78.4569 75.6925C78.2673 75.7851 78.0711 75.849 77.866 75.8931C77.6588 75.935 77.4339 75.9571 77.1935 75.9571C76.8738 75.9571 76.585 75.9042 76.3248 75.7939C76.0646 75.6859 75.8463 75.5337 75.6677 75.3353C75.4891 75.1368 75.3502 74.8987 75.2532 74.6165C75.154 74.3365 75.1055 74.0234 75.1055 73.6728C75.1055 73.3839 75.1363 73.0951 75.1959 72.8129C75.2576 72.5284 75.3458 72.2594 75.4627 72.0037C75.5795 71.7479 75.7229 71.5098 75.8904 71.2915C76.0602 71.071 76.2542 70.8814 76.4681 70.7204C76.6864 70.5594 76.9223 70.436 77.1847 70.3456C77.4449 70.2552 77.7271 70.2089 78.027 70.2089C78.3136 70.2089 78.5606 70.2508 78.7722 70.3301C78.9795 70.4117 79.1537 70.5154 79.2904 70.641C79.4293 70.7689 79.5285 70.9078 79.5947 71.0622C79.6608 71.2165 79.6939 71.3665 79.6939 71.5142C79.6939 71.7545 79.6432 71.9772 79.5462 72.1823C79.4469 72.3851 79.2661 72.5703 79.0038 72.7313C78.7414 72.8944 78.3798 73.0378 77.9234 73.159C77.4647 73.2803 76.876 73.3773 76.1572 73.4501C76.1528 73.481 76.1506 73.5162 76.1506 73.5493V73.6485C76.1506 74.1292 76.2542 74.4908 76.4615 74.7378C76.6688 74.9847 76.9819 75.1082 77.4008 75.1082C77.5728 75.1082 77.7271 75.0906 77.8638 75.0553C77.9983 75.0178 78.1196 74.9759 78.2232 74.9252C78.3269 74.8745 78.4195 74.8193 78.501 74.7576C78.5804 74.6959 78.6554 74.6407 78.7237 74.59C78.7921 74.5393 78.856 74.4952 78.9156 74.4577C78.9751 74.4247 79.0346 74.407 79.0964 74.407C79.1361 74.407 79.1735 74.4181 79.2044 74.4379C79.2353 74.4577 79.2661 74.4842 79.2948 74.5151L79.566 74.8436ZM77.9697 70.974C77.7492 70.974 77.5485 71.0181 77.3633 71.1085C77.1803 71.1989 77.0149 71.3224 76.8672 71.4833C76.7217 71.6421 76.596 71.8317 76.4946 72.0456C76.3909 72.2616 76.3094 72.4954 76.252 72.7467C76.7922 72.6762 77.2222 72.6012 77.5485 72.5152C77.8726 72.4292 78.124 72.3388 78.2982 72.2352C78.4746 72.136 78.5914 72.0279 78.6488 71.9155C78.7061 71.803 78.7348 71.6795 78.7348 71.5517C78.7348 71.4899 78.7215 71.426 78.6929 71.3554C78.6664 71.2893 78.6201 71.2253 78.5628 71.1702C78.501 71.1129 78.4239 71.0666 78.3269 71.0291C78.2298 70.9916 78.1086 70.974 77.9697 70.974Z" fill="#ED862E"/>
<path d="M84.0594 75.3971C83.8874 75.5382 83.7154 75.6484 83.539 75.7322C83.3649 75.816 83.1863 75.8733 83.0011 75.9042C82.8158 75.9373 82.6108 75.9549 82.3903 75.9549C82.0684 75.9549 81.7795 75.8976 81.5282 75.7895C81.2768 75.6793 81.0651 75.5227 80.8976 75.3221C80.7256 75.1214 80.5977 74.8789 80.5073 74.5967C80.4191 74.3122 80.375 73.9969 80.375 73.653C80.375 73.3531 80.4059 73.0576 80.472 72.771C80.5338 72.4822 80.6264 72.211 80.7476 71.9552C80.8689 71.6994 81.0166 71.4657 81.1886 71.2518C81.3606 71.0357 81.5524 70.8527 81.7663 70.694C81.978 70.5374 82.2095 70.4184 82.4608 70.3302C82.7122 70.2442 82.979 70.2001 83.2612 70.2001C83.6317 70.2001 83.9425 70.2662 84.1939 70.4007C84.4453 70.5308 84.6658 70.7248 84.8598 70.9784L84.5224 71.3863C84.496 71.415 84.4629 71.4392 84.4276 71.4657C84.3901 71.4877 84.3527 71.4966 84.3152 71.4966C84.2645 71.4966 84.2115 71.4745 84.1608 71.4304C84.1101 71.3885 84.0462 71.34 83.969 71.2849C83.8918 71.232 83.7948 71.1835 83.6802 71.1394C83.5655 71.0953 83.4178 71.0732 83.2392 71.0732C82.9966 71.0732 82.7673 71.1394 82.5512 71.2695C82.333 71.3973 82.1433 71.5803 81.9824 71.8119C81.8192 72.0434 81.6935 72.3146 81.5965 72.6299C81.5017 72.9474 81.4532 73.2914 81.4532 73.6596C81.4532 73.8801 81.4797 74.0785 81.5304 74.2571C81.5811 74.4379 81.6561 74.5901 81.7531 74.7157C81.8501 74.8414 81.9714 74.9362 82.1147 75.0068C82.2602 75.0729 82.4256 75.1082 82.613 75.1082C82.7717 75.1082 82.9107 75.0906 83.0341 75.0575C83.1554 75.0266 83.2656 74.9847 83.3582 74.9362C83.4531 74.8877 83.5346 74.8348 83.6074 74.7753C83.6824 74.7179 83.7463 74.6628 83.8058 74.6165C83.8632 74.568 83.9205 74.5283 83.9712 74.4952C84.0219 74.4622 84.0748 74.4467 84.1256 74.4467C84.2005 74.4467 84.2645 74.4776 84.324 74.546L84.593 74.8767C84.4122 75.084 84.2292 75.2604 84.0594 75.3971Z" fill="#ED862E"/>
<path d="M88.7225 74.4776C88.5946 74.7025 88.4557 74.9053 88.308 75.0861C88.158 75.2669 88.0015 75.4235 87.8339 75.5492C87.6663 75.6793 87.4899 75.7785 87.3047 75.8491C87.1195 75.9152 86.9277 75.9527 86.7292 75.9527C86.5088 75.9527 86.3081 75.9086 86.1273 75.8226C85.9465 75.7366 85.79 75.6087 85.6599 75.4434C85.5298 75.278 85.4283 75.0685 85.3578 74.8238C85.2872 74.5768 85.252 74.2968 85.252 73.9793C85.252 73.6486 85.2916 73.3244 85.3754 73.0069C85.457 72.6894 85.5761 72.3917 85.7304 72.1117C85.8848 71.8317 86.07 71.5759 86.2839 71.34C86.4977 71.1063 86.7381 70.9034 87.0027 70.7359C87.2672 70.5661 87.5517 70.4338 87.8582 70.3412C88.1646 70.2464 88.4844 70.2023 88.8173 70.2023C89.062 70.2023 89.298 70.2199 89.5317 70.2596C89.7654 70.2971 89.9947 70.3632 90.2196 70.4624L89.5493 75.8755H88.9893C88.8482 75.8755 88.7556 75.8402 88.7071 75.7675C88.6585 75.6969 88.6365 75.6087 88.6365 75.5073L88.7225 74.4776ZM89.0973 71.0181C88.9562 70.996 88.8129 70.985 88.674 70.985C88.3477 70.985 88.0412 71.06 87.7545 71.2121C87.4679 71.3643 87.2187 71.5715 87.0093 71.8273C86.7954 72.0831 86.63 72.3829 86.5088 72.7203C86.3853 73.0598 86.3257 73.4148 86.3257 73.7853C86.3257 74.2152 86.3941 74.5349 86.533 74.7466C86.6719 74.9583 86.8748 75.0619 87.1394 75.0619C87.3113 75.0619 87.4789 75.0068 87.6465 74.8965C87.8141 74.7841 87.9706 74.6297 88.1205 74.4335C88.2683 74.2373 88.4072 74.0035 88.5329 73.7367C88.6608 73.4699 88.771 73.1789 88.868 72.8636L89.0973 71.0181Z" fill="#ED862E"/>
<path d="M96.0738 70.2839L95.3969 75.8778H94.8633C94.6031 75.8778 94.4708 75.7499 94.4708 75.4919L94.537 74.5791C94.2459 75.0355 93.9218 75.3773 93.5602 75.6088C93.1986 75.8403 92.826 75.955 92.4467 75.955C92.2108 75.955 92.0035 75.9065 91.8205 75.8139C91.6397 75.7213 91.4898 75.5823 91.3796 75.4037C91.2649 75.2229 91.1877 75.0046 91.1458 74.7423C91.1039 74.4799 91.1017 74.18 91.1436 73.8427L91.567 70.2861H92.6341L92.2174 73.8427C92.1645 74.2616 92.1888 74.5681 92.288 74.7687C92.3872 74.9672 92.5746 75.0642 92.848 75.0642C93.0112 75.0642 93.181 75.0201 93.3529 74.9297C93.5271 74.8393 93.6925 74.7136 93.8557 74.5482C94.0144 74.3829 94.1644 74.1844 94.3033 73.9485C94.44 73.7126 94.559 73.4524 94.6583 73.1658L94.9978 70.2883H96.0738V70.2839Z" fill="#ED862E"/>
<path d="M100.445 71.2209C100.412 71.2673 100.379 71.3025 100.348 71.3202C100.317 71.3444 100.277 71.351 100.231 71.351C100.176 71.351 100.116 71.3312 100.057 71.2915C99.9948 71.2496 99.9221 71.2077 99.8339 71.1592C99.7479 71.1107 99.6443 71.0688 99.5252 71.0269C99.4039 70.9872 99.2562 70.9674 99.0842 70.9674C98.9211 70.9674 98.7777 70.9894 98.6499 71.0313C98.522 71.0754 98.4117 71.135 98.3169 71.2099C98.2221 71.2871 98.1515 71.3753 98.103 71.4767C98.0523 71.5781 98.0281 71.6884 98.0281 71.8008C98.0281 71.9243 98.0633 72.0324 98.1273 72.1161C98.1934 72.1999 98.2816 72.2727 98.3875 72.3388C98.4933 72.4028 98.6168 72.4601 98.7535 72.5108C98.8902 72.5615 99.0313 72.6167 99.1746 72.674C99.3179 72.7313 99.4591 72.7931 99.5958 72.8636C99.7325 72.932 99.8559 73.018 99.9618 73.1194C100.068 73.2208 100.154 73.3421 100.22 73.4854C100.286 73.6287 100.319 73.7985 100.319 73.9969C100.319 74.2571 100.268 74.5063 100.165 74.7422C100.061 74.9803 99.9155 75.1876 99.7236 75.3706C99.5318 75.5514 99.2981 75.6969 99.0269 75.8028C98.7557 75.9086 98.4514 75.9637 98.1141 75.9637C97.7569 75.9637 97.4416 75.8998 97.1615 75.7719C96.8815 75.6418 96.6566 75.4786 96.4824 75.2824L96.747 74.8701C96.8154 74.7642 96.9102 74.7091 97.027 74.7091C97.0888 74.7091 97.1505 74.7334 97.2122 74.7885C97.274 74.8348 97.3467 74.8943 97.4349 74.9539C97.5231 75.0156 97.6312 75.0707 97.7591 75.1214C97.887 75.1744 98.0545 75.1986 98.2552 75.1986C98.4272 75.1986 98.5837 75.1744 98.7204 75.1214C98.8571 75.0707 98.974 75.0024 99.071 74.9164C99.1658 74.8304 99.2386 74.7312 99.2871 74.6165C99.3356 74.5019 99.362 74.3806 99.362 74.2505C99.362 74.1182 99.329 74.0036 99.2628 73.9109C99.1967 73.8161 99.1107 73.739 99.0026 73.6728C98.8968 73.6089 98.7733 73.5515 98.6366 73.503C98.4977 73.4523 98.3588 73.4016 98.2177 73.3465C98.0766 73.2936 97.9377 73.2362 97.801 73.1701C97.6643 73.1062 97.5408 73.0246 97.4327 72.9253C97.3269 72.8261 97.2409 72.7071 97.1748 72.5659C97.1086 72.4248 97.0755 72.2529 97.0755 72.0522C97.0755 71.8141 97.1219 71.5848 97.2167 71.3621C97.3115 71.1394 97.4504 70.9431 97.629 70.7689C97.8076 70.597 98.0237 70.4603 98.2772 70.3544C98.533 70.253 98.8218 70.2001 99.146 70.2001C99.4921 70.2001 99.792 70.2574 100.052 70.3699C100.31 70.4823 100.533 70.6366 100.72 70.8285L100.445 71.2209Z" fill="#ED862E"/>
<path d="M105.683 74.8436C105.491 75.0376 105.308 75.2052 105.127 75.3463C104.947 75.4852 104.763 75.6021 104.574 75.6925C104.384 75.7851 104.188 75.849 103.981 75.8931C103.776 75.935 103.551 75.9571 103.31 75.9571C102.991 75.9571 102.7 75.9042 102.442 75.7939C102.182 75.6859 101.963 75.5337 101.785 75.3353C101.606 75.1368 101.465 74.8987 101.37 74.6165C101.273 74.3365 101.225 74.0234 101.225 73.6728C101.225 73.3839 101.255 73.0951 101.315 72.8129C101.377 72.5284 101.465 72.2594 101.582 72.0037C101.699 71.7479 101.842 71.5098 102.01 71.2915C102.177 71.071 102.371 70.8814 102.587 70.7204C102.806 70.5594 103.041 70.436 103.304 70.3456C103.564 70.2552 103.846 70.2089 104.146 70.2089C104.433 70.2089 104.68 70.2508 104.889 70.3301C105.099 70.4117 105.271 70.5154 105.41 70.641C105.546 70.7689 105.648 70.9078 105.714 71.0622C105.78 71.2165 105.813 71.3665 105.813 71.5142C105.813 71.7545 105.765 71.9772 105.665 72.1823C105.566 72.3851 105.385 72.5703 105.123 72.7313C104.861 72.8944 104.499 73.0378 104.042 73.159C103.582 73.2803 102.995 73.3773 102.276 73.4501C102.272 73.481 102.27 73.5162 102.27 73.5493V73.6485C102.27 74.1292 102.373 74.4908 102.581 74.7378C102.786 74.9847 103.101 75.1082 103.52 75.1082C103.692 75.1082 103.846 75.0906 103.981 75.0553C104.117 75.0178 104.237 74.9759 104.342 74.9252C104.446 74.8745 104.539 74.8193 104.618 74.7576C104.7 74.6959 104.775 74.6407 104.841 74.59C104.907 74.5393 104.973 74.4952 105.03 74.4577C105.092 74.4247 105.152 74.407 105.213 74.407C105.253 74.407 105.29 74.4181 105.321 74.4379C105.352 74.4577 105.383 74.4842 105.412 74.5151L105.683 74.8436ZM104.089 70.974C103.868 70.974 103.668 71.0181 103.482 71.1085C103.299 71.1989 103.134 71.3224 102.986 71.4833C102.841 71.6421 102.715 71.8317 102.614 72.0456C102.508 72.2616 102.428 72.4954 102.369 72.7467C102.909 72.6762 103.341 72.6012 103.665 72.5152C103.99 72.4292 104.243 72.3388 104.417 72.2352C104.594 72.136 104.711 72.0279 104.768 71.9155C104.825 71.803 104.854 71.6795 104.854 71.5517C104.854 71.4899 104.841 71.426 104.812 71.3554C104.783 71.2893 104.739 71.2253 104.68 71.1702C104.618 71.1129 104.539 71.0666 104.442 71.0291C104.347 70.9916 104.228 70.974 104.089 70.974Z" fill="#ED862E"/>
<path d="M111.255 68.8926L110.942 71.4459H113.667L113.552 72.3322H110.831L110.514 74.9583H113.909L113.795 75.8778H109.264L110.234 67.9731H114.763L114.646 68.8926H111.255Z" fill="#ED862E"/>
<path d="M119.905 70.2839L117.116 75.8778H116.212L114.781 70.2839H115.657C115.738 70.2839 115.8 70.306 115.846 70.3457C115.893 70.3876 115.923 70.4361 115.937 70.5L116.708 73.9353C116.733 74.0874 116.75 74.2396 116.766 74.3829C116.783 74.5284 116.792 74.6739 116.801 74.8217C116.847 74.6739 116.898 74.5284 116.949 74.3829C116.999 74.2396 117.057 74.0874 117.121 73.9353L118.755 70.5C118.785 70.4361 118.827 70.3876 118.882 70.3457C118.938 70.306 118.999 70.2839 119.068 70.2839H119.905Z" fill="#ED862E"/>
<path d="M124.343 74.8436C124.153 75.0376 123.968 75.2052 123.789 75.3463C123.611 75.4852 123.425 75.6021 123.236 75.6925C123.048 75.7851 122.848 75.849 122.645 75.8931C122.44 75.935 122.215 75.9571 121.972 75.9571C121.653 75.9571 121.366 75.9042 121.106 75.7939C120.848 75.6859 120.63 75.5337 120.449 75.3353C120.268 75.1368 120.131 74.8987 120.034 74.6165C119.937 74.3365 119.889 74.0234 119.889 73.6728C119.889 73.3839 119.915 73.0951 119.979 72.8129C120.041 72.5284 120.127 72.2594 120.246 72.0037C120.363 71.7479 120.508 71.5098 120.676 71.2915C120.846 71.071 121.035 70.8814 121.254 70.7204C121.47 70.5594 121.708 70.436 121.97 70.3456C122.23 70.2552 122.51 70.2089 122.81 70.2089C123.097 70.2089 123.344 70.2508 123.553 70.3301C123.76 70.4117 123.937 70.5154 124.074 70.641C124.21 70.7689 124.312 70.9078 124.378 71.0622C124.444 71.2165 124.477 71.3665 124.477 71.5142C124.477 71.7545 124.426 71.9772 124.327 72.1823C124.228 72.3851 124.047 72.5703 123.785 72.7313C123.522 72.8944 123.161 73.0378 122.704 73.159C122.246 73.2803 121.655 73.3773 120.936 73.4501C120.934 73.481 120.929 73.5162 120.929 73.5493V73.6485C120.929 74.1292 121.035 74.4908 121.24 74.7378C121.448 74.9847 121.761 75.1082 122.18 75.1082C122.352 75.1082 122.506 75.0906 122.643 75.0553C122.779 75.0178 122.898 74.9759 123.004 74.9252C123.108 74.8745 123.2 74.8193 123.282 74.7576C123.364 74.6959 123.436 74.6407 123.505 74.59C123.571 74.5393 123.635 74.4952 123.694 74.4577C123.752 74.4247 123.813 74.407 123.875 74.407C123.915 74.407 123.95 74.4181 123.983 74.4379C124.014 74.4577 124.045 74.4842 124.071 74.5151L124.343 74.8436ZM122.748 70.974C122.53 70.974 122.325 71.0181 122.144 71.1085C121.961 71.1989 121.796 71.3224 121.65 71.4833C121.503 71.6421 121.379 71.8317 121.276 72.0456C121.174 72.2616 121.09 72.4954 121.033 72.7467C121.573 72.6762 122.003 72.6012 122.33 72.5152C122.654 72.4292 122.903 72.3388 123.081 72.2352C123.258 72.136 123.372 72.0279 123.432 71.9155C123.489 71.803 123.516 71.6795 123.516 71.5517C123.516 71.4899 123.503 71.426 123.474 71.3554C123.447 71.2893 123.403 71.2253 123.342 71.1702C123.28 71.1129 123.203 71.0666 123.106 71.0291C123.006 70.9916 122.887 70.974 122.748 70.974Z" fill="#ED862E"/>
<path d="M126.673 71.7942C126.818 71.4899 126.977 71.2253 127.145 71.0048C127.315 70.7843 127.489 70.6079 127.674 70.4801C127.857 70.3544 128.049 70.2772 128.243 70.2485C128.439 70.2221 128.635 70.2529 128.834 70.3411L128.64 71.3752C128.168 71.1834 127.753 71.2496 127.396 71.5671C127.041 71.889 126.754 72.4777 126.534 73.3398L126.225 75.8777H125.176L125.853 70.275H126.391C126.51 70.275 126.6 70.3059 126.662 70.3632C126.724 70.4227 126.754 70.5153 126.754 70.6388L126.673 71.7942Z" fill="#ED862E"/>
<path d="M134.192 70.2838L130.437 77.5137C130.353 77.6747 130.232 77.7541 130.069 77.7541H129.273L130.497 75.5205L129.055 70.286H129.945C130.029 70.286 130.091 70.3081 130.133 70.3478C130.173 70.3896 130.201 70.4382 130.221 70.5021L131.068 73.8602C131.085 73.9418 131.101 74.0211 131.114 74.1005C131.125 74.1799 131.136 74.2593 131.145 74.3453C131.178 74.2593 131.211 74.1777 131.246 74.0961C131.279 74.0189 131.319 73.9374 131.357 73.8558L133.026 70.4977C133.054 70.4359 133.099 70.383 133.156 70.3455C133.211 70.3059 133.27 70.286 133.328 70.286H134.192V70.2838Z" fill="#ED862E"/>
<path d="M140.153 67.9731C140.572 67.9731 140.929 68.015 141.229 68.0966C141.529 68.1804 141.776 68.2973 141.97 68.4516C142.164 68.606 142.307 68.7912 142.398 69.0094C142.49 69.2277 142.539 69.4747 142.539 69.7437C142.539 69.9752 142.504 70.1979 142.438 70.4118C142.371 70.6257 142.272 70.8219 142.138 70.9983C142.005 71.1791 141.838 71.3378 141.635 71.4745C141.432 71.6135 141.196 71.7259 140.923 71.8141C141.395 71.9221 141.745 72.1052 141.977 72.3675C142.206 72.6299 142.323 72.9651 142.323 73.373C142.323 73.7346 142.257 74.0697 142.124 74.3762C141.992 74.6827 141.8 74.9473 141.553 75.17C141.306 75.3927 141.004 75.5647 140.647 75.6903C140.29 75.8138 139.886 75.8778 139.434 75.8778H136.793L137.763 67.9731H140.153V67.9731ZM139.525 74.9804C139.809 74.9804 140.054 74.9429 140.264 74.8679C140.473 74.7929 140.647 74.6871 140.786 74.5482C140.927 74.4115 141.029 74.2439 141.101 74.0499C141.172 73.8559 141.207 73.6376 141.207 73.395C141.207 73.2252 141.179 73.0753 141.126 72.9408C141.071 72.8041 140.987 72.6917 140.879 72.5968C140.768 72.4998 140.627 72.4271 140.455 72.3764C140.286 72.3234 140.085 72.2992 139.853 72.2992H138.363L138.032 74.9781H139.525V74.9804ZM138.782 68.8595L138.455 71.501H139.673C139.955 71.501 140.204 71.4657 140.418 71.393C140.632 71.3202 140.813 71.2144 140.956 71.0821C141.099 70.9476 141.207 70.7844 141.278 70.5926C141.353 70.3986 141.39 70.1847 141.39 69.9465C141.39 69.5805 141.282 69.3071 141.062 69.1307C140.846 68.9521 140.506 68.8639 140.047 68.8639H138.782V68.8595Z" fill="#ED862E"/>
<path d="M148.265 70.2838L147.588 75.8777H147.054C146.794 75.8777 146.664 75.7498 146.664 75.4918L146.73 74.579C146.442 75.0354 146.115 75.3772 145.756 75.6087C145.392 75.8402 145.022 75.9548 144.642 75.9548C144.406 75.9548 144.197 75.9063 144.016 75.8137C143.835 75.7211 143.685 75.5822 143.573 75.4036C143.458 75.2228 143.381 75.0045 143.339 74.7421C143.297 74.4798 143.295 74.1799 143.337 73.8425L143.76 70.286H144.83L144.411 73.8425C144.358 74.2615 144.384 74.568 144.484 74.7686C144.583 74.9671 144.768 75.0641 145.046 75.0641C145.211 75.0641 145.379 75.02 145.553 74.9296C145.725 74.8392 145.892 74.7135 146.053 74.5481C146.214 74.3828 146.364 74.1843 146.503 73.9484C146.64 73.7125 146.759 73.4523 146.856 73.1656L147.2 70.2882H148.265V70.2838Z" fill="#ED862E"/>
<path d="M152.634 71.2209C152.601 71.2673 152.568 71.3025 152.537 71.3202C152.509 71.3444 152.469 71.351 152.42 71.351C152.365 71.351 152.308 71.3312 152.246 71.2915C152.187 71.2496 152.114 71.2077 152.028 71.1592C151.942 71.1107 151.838 71.0688 151.715 71.0269C151.594 70.9872 151.448 70.9674 151.276 70.9674C151.115 70.9674 150.97 70.9894 150.842 71.0313C150.714 71.0754 150.601 71.135 150.509 71.2099C150.416 71.2871 150.343 71.3753 150.295 71.4767C150.244 71.5781 150.218 71.6884 150.218 71.8008C150.218 71.9243 150.253 72.0324 150.319 72.1161C150.385 72.1999 150.471 72.2727 150.579 72.3388C150.685 72.4028 150.806 72.4601 150.943 72.5108C151.08 72.5615 151.221 72.6167 151.364 72.674C151.508 72.7313 151.647 72.7931 151.785 72.8636C151.922 72.932 152.043 73.018 152.151 73.1194C152.257 73.2208 152.343 73.3421 152.409 73.4854C152.476 73.6287 152.509 73.7985 152.509 73.9969C152.509 74.2571 152.456 74.5063 152.354 74.7422C152.253 74.9803 152.103 75.1876 151.909 75.3706C151.717 75.5514 151.486 75.6969 151.212 75.8028C150.941 75.9086 150.637 75.9637 150.299 75.9637C149.944 75.9637 149.627 75.8998 149.345 75.7719C149.067 75.6418 148.842 75.4786 148.67 75.2824L148.935 74.8701C149.005 74.7642 149.098 74.7091 149.212 74.7091C149.276 74.7091 149.338 74.7334 149.398 74.7885C149.459 74.8348 149.534 74.8943 149.62 74.9539C149.708 75.0156 149.819 75.0707 149.947 75.1214C150.077 75.1744 150.242 75.1986 150.443 75.1986C150.612 75.1986 150.771 75.1744 150.908 75.1214C151.045 75.0707 151.161 75.0024 151.256 74.9164C151.353 74.8304 151.424 74.7312 151.475 74.6165C151.525 74.5019 151.547 74.3806 151.547 74.2505C151.547 74.1182 151.514 74.0036 151.448 73.9109C151.382 73.8161 151.296 73.739 151.19 73.6728C151.084 73.6089 150.963 73.5515 150.824 73.503C150.687 73.4523 150.549 73.4016 150.405 73.3465C150.264 73.2936 150.125 73.2362 149.986 73.1701C149.85 73.1062 149.726 73.0246 149.62 72.9253C149.514 72.8261 149.428 72.7071 149.362 72.5659C149.296 72.4248 149.263 72.2529 149.263 72.0522C149.263 71.8141 149.309 71.5848 149.406 71.3621C149.503 71.1394 149.638 70.9431 149.816 70.7689C149.995 70.597 150.211 70.4603 150.467 70.3544C150.723 70.253 151.009 70.2001 151.333 70.2001C151.677 70.2001 151.979 70.2574 152.24 70.3699C152.498 70.4823 152.723 70.6366 152.908 70.8285L152.634 71.2209Z" fill="#ED862E"/>
<path d="M155.204 70.2816L154.527 75.8777H153.469L154.139 70.2816H155.204ZM155.568 68.5574C155.568 68.6566 155.546 68.7492 155.502 68.8396C155.46 68.9322 155.405 69.0094 155.339 69.0755C155.272 69.1439 155.191 69.1968 155.103 69.2343C155.017 69.274 154.926 69.2916 154.834 69.2916C154.741 69.2916 154.653 69.274 154.569 69.2343C154.485 69.1968 154.41 69.1439 154.344 69.0755C154.282 69.0094 154.232 68.93 154.192 68.8396C154.152 68.7492 154.132 68.6544 154.132 68.5574C154.132 68.456 154.152 68.3634 154.192 68.273C154.232 68.1826 154.282 68.1054 154.349 68.037C154.415 67.9687 154.49 67.9158 154.576 67.8739C154.662 67.8342 154.752 67.8143 154.842 67.8143C154.935 67.8143 155.025 67.832 155.111 67.8717C155.2 67.9091 155.277 67.9621 155.343 68.0304C155.409 68.0988 155.464 68.1781 155.504 68.2663C155.546 68.3589 155.568 68.4538 155.568 68.5574Z" fill="#ED862E"/>
<path d="M157.495 71.6222C157.791 71.1526 158.122 70.7998 158.49 70.5595C158.856 70.3213 159.235 70.2001 159.623 70.2001C159.859 70.2001 160.069 70.2464 160.252 70.3412C160.432 70.4338 160.58 70.5727 160.693 70.7513C160.807 70.9321 160.884 71.1504 160.928 71.415C160.97 71.6774 160.97 71.9772 160.924 72.3146L160.505 75.8755H159.431L159.857 72.3146C159.908 71.8935 159.883 71.5848 159.784 71.3863C159.683 71.1901 159.495 71.0931 159.224 71.0931C159.054 71.0931 158.882 71.1394 158.706 71.232C158.53 71.329 158.36 71.4591 158.197 71.6289C158.033 71.8008 157.881 72.0059 157.738 72.2484C157.597 72.491 157.48 72.76 157.383 73.0576L157.07 75.8755H155.996L156.662 70.2728H157.202C157.319 70.2728 157.407 70.3037 157.469 70.361C157.531 70.4206 157.566 70.5132 157.566 70.6366L157.495 71.6222Z" fill="#ED862E"/>
<path d="M166.311 74.8436C166.122 75.0376 165.937 75.2052 165.758 75.3463C165.579 75.4852 165.394 75.6021 165.204 75.6925C165.013 75.7851 164.819 75.849 164.614 75.8931C164.406 75.935 164.184 75.9571 163.941 75.9571C163.621 75.9571 163.333 75.9042 163.075 75.7939C162.817 75.6859 162.596 75.5337 162.417 75.3353C162.237 75.1368 162.1 74.8987 162.003 74.6165C161.906 74.3365 161.857 74.0234 161.857 73.6728C161.857 73.3839 161.884 73.0951 161.948 72.8129C162.01 72.5284 162.096 72.2594 162.215 72.0037C162.331 71.7479 162.475 71.5098 162.645 71.2915C162.812 71.071 163.004 70.8814 163.222 70.7204C163.441 70.5594 163.679 70.436 163.939 70.3456C164.199 70.2552 164.479 70.2089 164.781 70.2089C165.066 70.2089 165.313 70.2508 165.524 70.3301C165.729 70.4117 165.906 70.5154 166.045 70.641C166.181 70.7689 166.283 70.9078 166.349 71.0622C166.415 71.2165 166.446 71.3665 166.446 71.5142C166.446 71.7545 166.397 71.9772 166.298 72.1823C166.199 72.3851 166.018 72.5703 165.756 72.7313C165.493 72.8944 165.134 73.0378 164.675 73.159C164.217 73.2803 163.626 73.3773 162.907 73.4501C162.903 73.481 162.9 73.5162 162.9 73.5493V73.6485C162.9 74.1292 163.004 74.4908 163.211 74.7378C163.419 74.9847 163.732 75.1082 164.151 75.1082C164.323 75.1082 164.477 75.0906 164.614 75.0553C164.75 75.0178 164.869 74.9759 164.973 74.9252C165.074 74.8745 165.171 74.8193 165.253 74.7576C165.332 74.6959 165.407 74.6407 165.476 74.59C165.544 74.5393 165.606 74.4952 165.665 74.4577C165.725 74.4247 165.787 74.407 165.848 74.407C165.888 74.407 165.923 74.4181 165.956 74.4379C165.987 74.4577 166.018 74.4842 166.047 74.5151L166.311 74.8436ZM164.715 70.974C164.497 70.974 164.292 71.0181 164.111 71.1085C163.928 71.1989 163.762 71.3224 163.615 71.4833C163.469 71.6421 163.346 71.8317 163.24 72.0456C163.138 72.2616 163.057 72.4954 162.997 72.7467C163.538 72.6762 163.97 72.6012 164.294 72.5152C164.62 72.4292 164.869 72.3388 165.046 72.2352C165.222 72.136 165.337 72.0279 165.396 71.9155C165.454 71.803 165.48 71.6795 165.48 71.5517C165.48 71.4899 165.467 71.426 165.438 71.3554C165.41 71.2893 165.368 71.2253 165.306 71.1702C165.244 71.1129 165.165 71.0666 165.07 71.0291C164.973 70.9916 164.856 70.974 164.715 70.974Z" fill="#ED862E"/>
<path d="M170.783 71.2209C170.75 71.2673 170.717 71.3025 170.686 71.3202C170.655 71.3444 170.615 71.351 170.567 71.351C170.509 71.351 170.452 71.3312 170.39 71.2915C170.333 71.2496 170.258 71.2077 170.172 71.1592C170.086 71.1107 169.98 71.0688 169.859 71.0269C169.74 70.9872 169.592 70.9674 169.42 70.9674C169.259 70.9674 169.114 70.9894 168.988 71.0313C168.858 71.0754 168.745 71.135 168.653 71.2099C168.56 71.2871 168.487 71.3753 168.439 71.4767C168.388 71.5781 168.364 71.6884 168.364 71.8008C168.364 71.9243 168.397 72.0324 168.465 72.1161C168.529 72.1999 168.615 72.2727 168.723 72.3388C168.829 72.4028 168.951 72.4601 169.089 72.5108C169.226 72.5615 169.365 72.6167 169.511 72.674C169.652 72.7313 169.793 72.7931 169.932 72.8636C170.068 72.932 170.192 73.018 170.298 73.1194C170.404 73.2208 170.492 73.3421 170.558 73.4854C170.624 73.6287 170.655 73.7985 170.655 73.9969C170.655 74.2571 170.602 74.5063 170.501 74.7422C170.399 74.9803 170.251 75.1876 170.057 75.3706C169.866 75.5514 169.632 75.6969 169.361 75.8028C169.089 75.9086 168.785 75.9637 168.448 75.9637C168.093 75.9637 167.775 75.8998 167.497 75.7719C167.217 75.6418 166.993 75.4786 166.818 75.2824L167.083 74.8701C167.154 74.7642 167.246 74.7091 167.363 74.7091C167.427 74.7091 167.486 74.7334 167.548 74.7885C167.61 74.8348 167.683 74.8943 167.771 74.9539C167.859 75.0156 167.967 75.0707 168.095 75.1214C168.225 75.1744 168.39 75.1986 168.591 75.1986C168.763 75.1986 168.92 75.1744 169.056 75.1214C169.193 75.0707 169.31 75.0024 169.407 74.9164C169.502 74.8304 169.572 74.7312 169.623 74.6165C169.674 74.5019 169.696 74.3806 169.696 74.2505C169.696 74.1182 169.663 74.0036 169.599 73.9109C169.533 73.8161 169.447 73.739 169.339 73.6728C169.233 73.6089 169.111 73.5515 168.973 73.503C168.836 73.4523 168.697 73.4016 168.554 73.3465C168.413 73.2936 168.276 73.2362 168.135 73.1701C167.998 73.1062 167.875 73.0246 167.769 72.9253C167.663 72.8261 167.577 72.7071 167.508 72.5659C167.442 72.4248 167.411 72.2529 167.411 72.0522C167.411 71.8141 167.458 71.5848 167.557 71.3621C167.65 71.1394 167.786 70.9431 167.965 70.7689C168.144 70.597 168.36 70.4603 168.613 70.3544C168.869 70.253 169.158 70.2001 169.48 70.2001C169.824 70.2001 170.126 70.2574 170.386 70.3699C170.644 70.4823 170.869 70.6366 171.056 70.8285L170.783 71.2209Z" fill="#ED862E"/>
<path d="M175.203 71.2209C175.168 71.2673 175.137 71.3025 175.106 71.3202C175.075 71.3444 175.036 71.351 174.989 71.351C174.932 71.351 174.877 71.3312 174.815 71.2915C174.756 71.2496 174.683 71.2077 174.595 71.1592C174.509 71.1107 174.403 71.0688 174.282 71.0269C174.163 70.9872 174.015 70.9674 173.841 70.9674C173.68 70.9674 173.534 70.9894 173.406 71.0313C173.276 71.0754 173.166 71.135 173.071 71.2099C172.978 71.2871 172.906 71.3753 172.857 71.4767C172.806 71.5781 172.782 71.6884 172.782 71.8008C172.782 71.9243 172.815 72.0324 172.884 72.1161C172.948 72.1999 173.034 72.2727 173.142 72.3388C173.247 72.4028 173.369 72.4601 173.508 72.5108C173.644 72.5615 173.783 72.6167 173.927 72.674C174.07 72.7313 174.211 72.7931 174.348 72.8636C174.484 72.932 174.608 73.018 174.714 73.1194C174.82 73.2208 174.906 73.3421 174.974 73.4854C175.038 73.6287 175.071 73.7985 175.071 73.9969C175.071 74.2571 175.018 74.5063 174.917 74.7422C174.815 74.9803 174.667 75.1876 174.473 75.3706C174.282 75.5514 174.05 75.6969 173.777 75.8028C173.505 75.9086 173.201 75.9637 172.864 75.9637C172.509 75.9637 172.191 75.8998 171.911 75.7719C171.631 75.6418 171.409 75.4786 171.234 75.2824L171.499 74.8701C171.57 74.7642 171.662 74.7091 171.779 74.7091C171.843 74.7091 171.905 74.7334 171.964 74.7885C172.026 74.8348 172.099 74.8943 172.187 74.9539C172.273 75.0156 172.383 75.0707 172.511 75.1214C172.641 75.1744 172.806 75.1986 173.007 75.1986C173.179 75.1986 173.336 75.1744 173.475 75.1214C173.611 75.0707 173.726 75.0024 173.823 74.9164C173.918 74.8304 173.988 74.7312 174.039 74.6165C174.09 74.5019 174.112 74.3806 174.112 74.2505C174.112 74.1182 174.079 74.0036 174.015 73.9109C173.949 73.8161 173.863 73.739 173.755 73.6728C173.649 73.6089 173.527 73.5515 173.389 73.503C173.252 73.4523 173.113 73.4016 172.97 73.3465C172.829 73.2936 172.692 73.2362 172.551 73.1701C172.414 73.1062 172.291 73.0246 172.187 72.9253C172.081 72.8261 171.995 72.7071 171.927 72.5659C171.861 72.4248 171.83 72.2529 171.83 72.0522C171.83 71.8141 171.876 71.5848 171.973 71.3621C172.068 71.1394 172.202 70.9431 172.383 70.7689C172.56 70.597 172.778 70.4603 173.031 70.3544C173.287 70.253 173.576 70.2001 173.898 70.2001C174.242 70.2001 174.546 70.2574 174.802 70.3699C175.06 70.4823 175.285 70.6366 175.472 70.8285L175.203 71.2209Z" fill="#ED862E"/>
<path d="M180.305 70.2816L179.628 75.8777H178.572L179.243 70.2816H180.305ZM180.669 68.5574C180.669 68.6566 180.647 68.7492 180.605 68.8396C180.563 68.9322 180.508 69.0094 180.44 69.0755C180.371 69.1439 180.294 69.1968 180.206 69.2343C180.116 69.274 180.03 69.2916 179.937 69.2916C179.845 69.2916 179.756 69.274 179.673 69.2343C179.587 69.1968 179.512 69.1439 179.448 69.0755C179.386 69.0094 179.333 68.93 179.295 68.8396C179.256 68.7492 179.236 68.6544 179.236 68.5574C179.236 68.456 179.256 68.3634 179.295 68.273C179.333 68.1826 179.386 68.1054 179.452 68.037C179.518 67.9687 179.593 67.9158 179.679 67.8739C179.765 67.8342 179.856 67.8143 179.948 67.8143C180.039 67.8143 180.129 67.832 180.217 67.8717C180.305 67.9091 180.383 67.9621 180.449 68.0304C180.515 68.0988 180.566 68.1781 180.607 68.2663C180.647 68.3589 180.669 68.4538 180.669 68.5574Z" fill="#ED862E"/>
<path d="M184.728 71.2209C184.695 71.2673 184.661 71.3025 184.631 71.3202C184.602 71.3444 184.562 71.351 184.514 71.351C184.459 71.351 184.401 71.3312 184.34 71.2915C184.28 71.2496 184.207 71.2077 184.121 71.1592C184.033 71.1107 183.929 71.0688 183.808 71.0269C183.687 70.9872 183.541 70.9674 183.369 70.9674C183.208 70.9674 183.063 70.9894 182.935 71.0313C182.807 71.0754 182.695 71.135 182.602 71.2099C182.509 71.2871 182.437 71.3753 182.388 71.4767C182.337 71.5781 182.311 71.6884 182.311 71.8008C182.311 71.9243 182.346 72.0324 182.412 72.1161C182.479 72.1999 182.565 72.2727 182.673 72.3388C182.778 72.4028 182.9 72.4601 183.039 72.5108C183.175 72.5615 183.316 72.6167 183.46 72.674C183.603 72.7313 183.742 72.7931 183.881 72.8636C184.018 72.932 184.139 73.018 184.247 73.1194C184.353 73.2208 184.439 73.3421 184.503 73.4854C184.569 73.6287 184.604 73.7985 184.604 73.9969C184.604 74.2571 184.553 74.5063 184.45 74.7422C184.348 74.9803 184.201 75.1876 184.007 75.3706C183.815 75.5514 183.583 75.6969 183.31 75.8028C183.039 75.9086 182.734 75.9637 182.397 75.9637C182.042 75.9637 181.725 75.8998 181.442 75.7719C181.164 75.6418 180.94 75.4786 180.768 75.2824L181.032 74.8701C181.103 74.7642 181.195 74.7091 181.31 74.7091C181.374 74.7091 181.436 74.7334 181.495 74.7885C181.557 74.8348 181.632 74.8943 181.718 74.9539C181.806 75.0156 181.916 75.0707 182.042 75.1214C182.172 75.1744 182.337 75.1986 182.538 75.1986C182.71 75.1986 182.867 75.1744 183.003 75.1214C183.142 75.0707 183.259 75.0024 183.354 74.9164C183.451 74.8304 183.522 74.7312 183.572 74.6165C183.623 74.5019 183.645 74.3806 183.645 74.2505C183.645 74.1182 183.612 74.0036 183.546 73.9109C183.48 73.8161 183.394 73.739 183.288 73.6728C183.182 73.6089 183.061 73.5515 182.922 73.503C182.785 73.4523 182.646 73.4016 182.503 73.3465C182.362 73.2936 182.223 73.2362 182.084 73.1701C181.947 73.1062 181.824 73.0246 181.718 72.9253C181.612 72.8261 181.526 72.7071 181.46 72.5659C181.394 72.4248 181.361 72.2529 181.361 72.0522C181.361 71.8141 181.407 71.5848 181.504 71.3621C181.601 71.1394 181.736 70.9431 181.914 70.7689C182.093 70.597 182.309 70.4603 182.565 70.3544C182.82 70.253 183.107 70.2001 183.431 70.2001C183.777 70.2001 184.077 70.2574 184.337 70.3699C184.595 70.4823 184.82 70.6366 185.005 70.8285L184.728 71.2209Z" fill="#ED862E"/>
<path d="M191.225 74.9804C191.512 74.9804 191.774 74.9274 192.013 74.8194C192.248 74.7092 192.46 74.557 192.639 74.3608C192.82 74.1645 192.969 73.933 193.082 73.664C193.199 73.3928 193.276 73.0952 193.318 72.7688L193.9 67.9753H195.033L194.445 72.7688C194.385 73.2275 194.266 73.6552 194.083 74.0433C193.898 74.4357 193.66 74.7753 193.371 75.0597C193.08 75.3464 192.745 75.5691 192.361 75.73C191.979 75.8932 191.558 75.9726 191.104 75.9726C190.648 75.9726 190.249 75.8932 189.902 75.73C189.558 75.5691 189.276 75.3464 189.056 75.0597C188.84 74.7753 188.685 74.4357 188.597 74.0433C188.511 73.6552 188.494 73.2275 188.551 72.7688L189.133 67.9753H190.26L189.671 72.7688C189.631 73.093 189.633 73.3906 189.684 73.6618C189.735 73.9352 189.825 74.1667 189.958 74.3608C190.09 74.5548 190.26 74.7069 190.476 74.8172C190.69 74.9252 190.939 74.9804 191.225 74.9804Z" fill="#ED862E"/>
<path d="M196.954 71.6222C197.25 71.1526 197.583 70.7998 197.951 70.5595C198.317 70.3213 198.696 70.2001 199.084 70.2001C199.32 70.2001 199.527 70.2464 199.71 70.3412C199.891 70.4338 200.039 70.5727 200.151 70.7513C200.268 70.9321 200.343 71.1504 200.387 71.415C200.429 71.6774 200.429 71.9772 200.383 72.3146L199.964 75.8755H198.89L199.316 72.3146C199.369 71.8935 199.342 71.5848 199.241 71.3863C199.139 71.1901 198.954 71.0931 198.683 71.0931C198.513 71.0931 198.341 71.1394 198.165 71.232C197.988 71.329 197.821 71.4591 197.655 71.6289C197.492 71.8008 197.34 72.0059 197.197 72.2484C197.056 72.491 196.939 72.76 196.842 73.0576L196.529 75.8755H195.457L196.123 70.2728H196.661C196.78 70.2728 196.87 70.3037 196.93 70.361C196.994 70.4206 197.025 70.5132 197.025 70.6366L196.954 71.6222Z" fill="#ED862E"/>
<path d="M203.104 70.2816L202.427 75.8777H201.371L202.044 70.2816H203.104ZM203.468 68.5574C203.468 68.6566 203.446 68.7492 203.404 68.8396C203.362 68.9322 203.307 69.0094 203.241 69.0755C203.17 69.1439 203.095 69.1968 203.005 69.2343C202.917 69.274 202.829 69.2916 202.736 69.2916C202.643 69.2916 202.555 69.274 202.471 69.2343C202.385 69.1968 202.31 69.1439 202.246 69.0755C202.185 69.0094 202.132 68.93 202.094 68.8396C202.055 68.7492 202.035 68.6544 202.035 68.5574C202.035 68.456 202.055 68.3634 202.094 68.273C202.132 68.1826 202.185 68.1054 202.251 68.037C202.317 67.9687 202.394 67.9158 202.478 67.8739C202.564 67.8342 202.654 67.8143 202.747 67.8143C202.837 67.8143 202.928 67.832 203.016 67.8717C203.104 67.9091 203.181 67.9621 203.247 68.0304C203.314 68.0988 203.364 68.1781 203.406 68.2663C203.446 68.3589 203.468 68.4538 203.468 68.5574Z" fill="#ED862E"/>
<path d="M207.239 74.6187C206.985 75.0288 206.699 75.3551 206.377 75.5955C206.057 75.8358 205.706 75.9571 205.329 75.9571C205.109 75.9571 204.906 75.913 204.725 75.827C204.544 75.741 204.388 75.6131 204.26 75.4477C204.128 75.2824 204.028 75.0729 203.956 74.8282C203.883 74.5812 203.848 74.3012 203.848 73.9837C203.848 73.6529 203.892 73.3288 203.976 73.0113C204.059 72.6938 204.178 72.3961 204.328 72.1161C204.48 71.8361 204.666 71.5803 204.882 71.3444C205.098 71.1107 205.338 70.9078 205.601 70.7403C205.865 70.5705 206.15 70.4382 206.456 70.3456C206.763 70.2508 207.084 70.2067 207.415 70.2067C207.658 70.2067 207.894 70.2243 208.127 70.264C208.361 70.3015 208.59 70.3676 208.813 70.4668L207.909 77.7563H207.228C207.155 77.7563 207.095 77.7431 207.049 77.7166C207.003 77.6946 206.968 77.6593 206.941 77.6152C206.915 77.5733 206.899 77.5292 206.89 77.4763C206.884 77.4255 206.884 77.3704 206.89 77.3153L207.239 74.6187ZM207.697 71.0181C207.554 70.996 207.411 70.985 207.272 70.985C206.946 70.985 206.639 71.06 206.357 71.2121C206.072 71.3642 205.823 71.5715 205.614 71.8273C205.402 72.083 205.235 72.3829 205.113 72.7203C204.99 73.0598 204.928 73.4148 204.928 73.7852C204.928 74.2152 204.996 74.5349 205.14 74.7466C205.276 74.9582 205.479 75.0619 205.744 75.0619C205.914 75.0619 206.079 75.0068 206.244 74.8965C206.41 74.7885 206.566 74.6363 206.714 74.4423C206.864 74.2505 207.001 74.0234 207.129 73.7566C207.256 73.492 207.367 73.2075 207.462 72.8966L207.697 71.0181Z" fill="#ED862E"/>
<path d="M214.677 70.2838L214 75.8777H213.467C213.207 75.8777 213.077 75.7498 213.077 75.4918L213.143 74.579C212.852 75.0354 212.525 75.3772 212.166 75.6087C211.802 75.8402 211.432 75.9548 211.052 75.9548C210.817 75.9548 210.609 75.9063 210.426 75.8137C210.245 75.7211 210.096 75.5822 209.983 75.4036C209.868 75.2228 209.791 75.0045 209.749 74.7421C209.707 74.4798 209.705 74.1799 209.747 73.8425L210.17 70.286H211.24L210.821 73.8425C210.768 74.2615 210.794 74.568 210.894 74.7686C210.993 74.9671 211.178 75.0641 211.456 75.0641C211.621 75.0641 211.789 75.02 211.963 74.9296C212.135 74.8392 212.303 74.7135 212.464 74.5481C212.625 74.3828 212.774 74.1843 212.913 73.9484C213.05 73.7125 213.169 73.4523 213.266 73.1656L213.61 70.2882H214.677V70.2838Z" fill="#ED862E"/>
<path d="M219.866 74.8436C219.676 75.0376 219.491 75.2052 219.313 75.3463C219.134 75.4852 218.947 75.6021 218.759 75.6925C218.57 75.7851 218.373 75.849 218.168 75.8931C217.963 75.935 217.738 75.9571 217.496 75.9571C217.176 75.9571 216.887 75.9042 216.629 75.7939C216.371 75.6859 216.151 75.5337 215.972 75.3353C215.791 75.1368 215.655 74.8987 215.558 74.6165C215.461 74.3365 215.412 74.0234 215.412 73.6728C215.412 73.3839 215.439 73.0951 215.503 72.8129C215.564 72.5284 215.65 72.2594 215.769 72.0037C215.886 71.7479 216.029 71.5098 216.199 71.2915C216.367 71.071 216.559 70.8814 216.777 70.7204C216.995 70.5594 217.233 70.436 217.494 70.3456C217.754 70.2552 218.034 70.2089 218.336 70.2089C218.62 70.2089 218.869 70.2508 219.079 70.3301C219.284 70.4117 219.46 70.5154 219.599 70.641C219.736 70.7689 219.837 70.9078 219.904 71.0622C219.97 71.2165 220.001 71.3665 220.001 71.5142C220.001 71.7545 219.952 71.9772 219.853 72.1823C219.754 72.3851 219.571 72.5703 219.31 72.7313C219.048 72.8944 218.689 73.0378 218.23 73.159C217.771 73.2803 217.183 73.3773 216.462 73.4501C216.457 73.481 216.455 73.5162 216.455 73.5493V73.6485C216.455 74.1292 216.559 74.4908 216.766 74.7378C216.973 74.9847 217.286 75.1082 217.705 75.1082C217.875 75.1082 218.032 75.0906 218.168 75.0553C218.305 75.0178 218.424 74.9759 218.528 74.9252C218.629 74.8745 218.726 74.8193 218.808 74.7576C218.887 74.6959 218.962 74.6407 219.028 74.59C219.097 74.5393 219.16 74.4952 219.218 74.4577C219.277 74.4247 219.339 74.407 219.401 74.407C219.44 74.407 219.476 74.4181 219.507 74.4379C219.538 74.4577 219.568 74.4842 219.597 74.5151L219.866 74.8436ZM218.272 70.974C218.054 70.974 217.849 71.0181 217.668 71.1085C217.485 71.1989 217.319 71.3224 217.172 71.4833C217.026 71.6421 216.903 71.8317 216.799 72.0456C216.698 72.2616 216.616 72.4954 216.556 72.7467C217.097 72.6762 217.529 72.6012 217.853 72.5152C218.179 72.4292 218.428 72.3388 218.605 72.2352C218.781 72.136 218.898 72.0279 218.955 71.9155C219.013 71.803 219.039 71.6795 219.039 71.5517C219.039 71.4899 219.026 71.426 218.997 71.3554C218.969 71.2893 218.927 71.2253 218.865 71.1702C218.803 71.1129 218.724 71.0666 218.629 71.0291C218.53 70.9916 218.411 70.974 218.272 70.974Z" fill="#ED862E"/>
<path d="M122.9 0H129.079L143.069 17.9855V0H149.243V27.7973H143.069L129.079 9.62886V27.7973H122.9V0Z" fill="#55708C"/>
<path d="M100.142 49.6347L89.1348 33.0295H96.7175L103.035 42.9583L109.894 33.0295H117.113L106.285 49.6347V62.0925H100.146L100.142 49.6347Z" fill="#55708C"/>
<path d="M146.173 39.168H138.412V33.0317H160.252V39.168H152.49V62.0925H146.354V39.168H146.173Z" fill="#55708C"/>
<path d="M163.504 33.0317H182.998V39.168H169.64V44.4025H180.109V50.5388H169.64V56.1348H182.998V62.2711H163.504V33.0317Z" fill="#55708C"/>
<path d="M193.645 33.0317L203.574 52.7062L213.503 33.0317H220.001V62.0925H213.503V47.6503L205.741 62.0925H200.866L193.467 47.6503V62.0925H186.969V33.0317H193.645Z" fill="#55708C"/>
<path d="M116.815 16.6559C116.815 18.2633 116.815 27.7973 105.407 27.7973C93.959 27.7973 93.959 18.2633 93.959 16.6559V0H99.9321V16.4266C99.9321 17.2689 100.406 22.2851 105.409 22.2851C110.355 22.2851 110.844 17.2689 110.844 16.4266V0H116.817V16.6559H116.815Z" fill="#55708C"/>
<path d="M68.7422 0H79.5C80.9133 0 82.2539 0.138908 83.5261 0.412318C84.794 0.687932 85.9074 1.14656 86.8622 1.78598C87.8191 2.42761 88.5776 3.29194 89.1398 4.37676C89.7021 5.46378 89.9843 6.81759 89.9843 8.44041C89.9843 10.4028 89.475 12.0719 88.4541 13.4456C87.4332 14.8214 85.9405 15.6902 83.9781 16.0562L91.0449 27.7951H83.7025L77.8926 16.6824H74.8696V27.7951H68.7422V0ZM74.8652 11.503H78.4769C79.0281 11.503 79.608 11.4832 80.2232 11.4435C80.8383 11.406 81.3918 11.287 81.8923 11.0907C82.3884 10.8945 82.8007 10.588 83.1293 10.1691C83.4556 9.75013 83.6209 9.16142 83.6209 8.40293C83.6209 7.69515 83.4776 7.1329 83.1888 6.71397C82.8999 6.29503 82.5339 5.97532 82.0907 5.75042C81.6453 5.52993 81.1338 5.37778 80.5583 5.29841C79.9806 5.21903 79.4206 5.18155 78.8694 5.18155H74.8652V11.503Z" fill="#55708C"/>
<path d="M131.96 40.6256C131.469 40.0038 129.22 38.5243 126.216 38.9565C125.745 39.0248 124.545 39.446 123.888 40.3147C123.035 41.4392 123.542 42.8592 124.43 43.5361C125.037 43.9991 125.833 44.3519 126.779 44.6628C127.725 44.9715 128.739 45.2824 129.826 45.5933C130.915 45.9042 131.929 46.3451 132.873 46.9118C133.819 47.4829 134.6 48.2458 135.221 49.2027C135.843 50.1596 136.152 51.4429 136.152 53.0459C136.152 54.5717 135.867 55.9056 135.299 57.0434C134.73 58.1811 132.112 62.0882 125.555 62.0882C123.769 62.0882 120.005 61.4069 116.316 58.6331L120.625 53.8992C122.155 55.3213 123.851 56.501 125.906 56.501C128.655 56.501 129.491 55.2772 129.729 54.909C130.068 54.3843 130.582 52.8607 129.147 51.6678C128.536 51.1607 127.716 50.7814 126.759 50.4441C125.802 50.1089 124.768 49.7716 123.654 49.4364C122.541 49.0991 121.505 48.6449 120.55 48.076C119.591 47.5071 118.795 46.7575 118.162 45.8248C117.527 44.8921 117.212 43.664 117.212 42.136C117.212 40.6609 117.485 39.3578 118.085 38.2531C119.54 35.5697 122.503 34.1454 123.771 33.7705C125.039 33.3957 126.347 33.2083 127.694 33.2083C129.246 33.2083 130.748 33.4265 132.196 33.8675C133.645 34.3063 134.952 35.0449 136.117 36.0791L131.96 40.6256Z" fill="#55708C"/>
<path d="M84.3841 40.6256C83.8924 40.0038 81.6434 38.5243 78.6403 38.9565C78.1662 39.0248 76.9668 39.446 76.3097 40.3147C75.4586 41.4392 75.9635 42.8592 76.8543 43.5361C77.4607 43.9991 78.2588 44.3519 79.2026 44.6628C80.1463 44.9715 81.1605 45.2824 82.2475 45.5933C83.3368 45.9042 84.351 46.3451 85.2947 46.9118C86.2406 47.4829 87.0212 48.2458 87.643 49.2027C88.2625 50.1596 88.5756 51.4429 88.5756 53.0459C88.5756 54.5717 88.2912 55.9056 87.7223 57.0434C87.1513 58.1811 84.534 62.0882 77.9766 62.0882C76.1928 62.0882 72.4291 61.4069 68.7402 58.6331L73.0486 53.8992C74.5788 55.3213 76.2744 56.501 78.3272 56.501C81.0767 56.501 81.9124 55.2772 82.1527 54.909C82.4945 54.3843 83.006 52.8607 81.5728 51.6678C80.9621 51.1607 80.1418 50.7814 79.1849 50.4441C78.228 50.1089 77.1917 49.7716 76.0804 49.4364C74.9669 49.0991 73.9306 48.6449 72.9737 48.076C72.0145 47.5071 71.2208 46.7575 70.5857 45.8248C69.9529 44.8921 69.6354 43.664 69.6354 42.136C69.6354 40.6609 69.9088 39.3578 70.5086 38.2531C71.966 35.5697 74.9272 34.1454 76.195 33.7705C77.4629 33.3957 78.7704 33.2083 80.1154 33.2083C81.6676 33.2083 83.1692 33.4265 84.6178 33.8675C86.0664 34.3063 87.374 35.0449 88.5382 36.0791L84.3841 40.6256Z" fill="#55708C"/>
<path d="M59.2923 41.0996L18.1927 0H0L59.2923 59.1181V41.0996Z" fill="#3374B9"/>
<path d="M59.2936 20.477L38.8188 0H19.7617L59.2936 39.5319V20.477Z" fill="#4EA8DC"/>
<path d="M40.3867 0L59.2939 18.9093V0H40.3867Z" fill="#2EBFCB"/>
</svg>
